<?xml version="1.0" standalone="no"?>
<!DOCTYPE svg PUBLIC "-//W3C//DTD SVG 20010904//EN"
 "http://www.w3.org/TR/2001/REC-SVG-20010904/DTD/svg10.dtd">
<svg version="1.0" xmlns="http://www.w3.org/2000/svg"
 width="406.000000pt" height="406.000000pt" viewBox="0 0 406.000000 406.000000"
 preserveAspectRatio="xMidYMid meet">
<metadata>
Created by potrace 1.11, written by Peter Selinger 2001-2013
</metadata>
<g transform="translate(0.000000,406.000000) scale(0.100000,-0.100000)"
fill="#000000" stroke="none">
<path d="M460 3910 c-13 -8 -15 -66 -15 -425 0 -359 2 -417 15 -425 21 -14
936 -13 961 0 18 10 19 26 19 425 0 399 -1 415 -19 425 -25 13 -940 14 -961 0z"/>
<path d="M1560 3910 c-13 -8 -15 -66 -15 -425 0 -359 2 -417 15 -425 21 -14
936 -13 961 0 18 10 19 26 19 425 0 399 -1 415 -19 425 -25 13 -940 14 -961 0z"/>
<path d="M2660 3910 c-13 -8 -15 -66 -15 -425 0 -359 2 -417 15 -425 21 -14
936 -13 961 0 18 10 19 26 19 425 0 399 -1 415 -19 425 -25 13 -940 14 -961 0z"/>
<path d="M460 2940 c-13 -8 -15 -67 -15 -430 0 -363 2 -422 15 -430 21 -14
936 -13 961 0 18 10 19 26 19 430 0 404 -1 420 -19 430 -25 13 -940 14 -961 0z"/>
<path d="M1560 2940 c-13 -8 -15 -67 -15 -430 0 -363 2 -422 15 -430 21 -14
936 -13 961 0 18 10 19 26 19 430 0 404 -1 420 -19 430 -25 13 -940 14 -961 0z"/>
<path d="M2660 2940 c-13 -8 -15 -67 -15 -430 0 -363 2 -422 15 -430 21 -14
936 -13 961 0 18 10 19 26 19 430 0 404 -1 420 -19 430 -25 13 -940 14 -961 0z"/>
<path d="M460 1960 c-13 -8 -15 -66 -15 -425 0 -359 2 -417 15 -425 21 -14
936 -13 961 0 18 10 19 26 19 425 0 399 -1 415 -19 425 -25 13 -940 14 -961 0z"/>
<path d="M1560 1960 c-13 -8 -15 -66 -15 -425 0 -359 2 -417 15 -425 21 -14
936 -13 961 0 18 10 19 26 19 425 0 399 -1 415 -19 425 -25 13 -940 14 -961 0z"/>
<path d="M2660 1960 c-13 -8 -15 -66 -15 -425 0 -359 2 -417 15 -425 21 -14
936 -13 961 0 18 10 19 26 19 425 0 399 -1 415 -19 425 -25 13 -940 14 -961 0z"/>
<path d="M460 990 c-13 -8 -15 -66 -15 -425 0 -359 2 -417 15 -425 22 -14
2035 -13 2061 0 18 10 19 26 19 425 0 399 -1 415 -19 425 -26 13 -2039 14
-2061 0z"/>
</g>
</svg>
